<svg width="32" height="32" viewBox="0 0 32 32" fill="none" xmlns="http://www.w3.org/2000/svg">
<path d="M3.99921 15.9999C3.99921 15.7347 4.10457 15.4804 4.29211 15.2928C4.47964 15.1053 4.734 14.9999 4.99921 14.9999L24.5855 14.9999L17.2917 7.70743C17.1988 7.61452 17.1251 7.50422 17.0748 7.38283C17.0245 7.26143 16.9987 7.13133 16.9987 6.99993C16.9987 6.86854 17.0245 6.73843 17.0748 6.61703C17.1251 6.49564 17.1988 6.38534 17.2917 6.29243C17.3846 6.19952 17.4949 6.12582 17.6163 6.07554C17.7377 6.02526 17.8678 5.99937 17.9992 5.99937C18.1306 5.99937 18.2607 6.02526 18.3821 6.07554C18.5035 6.12582 18.6138 6.19952 18.7067 6.29243L27.7067 15.2924C27.7997 15.3853 27.8734 15.4956 27.9238 15.617C27.9741 15.7384 28 15.8685 28 15.9999C28 16.1313 27.9741 16.2615 27.9238 16.3829C27.8734 16.5043 27.7997 16.6146 27.7067 16.7074L18.7067 25.7074C18.5191 25.8951 18.2646 26.0005 17.9992 26.0005C17.7338 26.0005 17.4794 25.8951 17.2917 25.7074C17.1041 25.5198 16.9987 25.2653 16.9987 24.9999C16.9987 24.7346 17.1041 24.4801 17.2917 24.2924L24.5855 16.9999L4.99921 16.9999C4.734 16.9999 4.47964 16.8946 4.29211 16.707C4.10457 16.5195 3.99921 16.2651 3.99921 15.9999Z" fill="currentColor"/>
</svg>
