<svg width="130" height="42" viewBox="0 0 130 42" fill="none" xmlns="http://www.w3.org/2000/svg">
<g clip-path="url(#clip0_2012_1285)">
<path d="M47.2377 29.3708V16.3368C47.2377 13.8439 46.4386 12.338 43.8163 12.338C42.0682 12.338 40.9194 13.4769 40.2451 15.0334C39.5334 16.7037 39.5708 18.9056 39.5708 20.7152V29.3708H34.6011V8.13671H38.7717L39.1338 10.8701C40.37 8.63023 42.8299 7.60522 45.2148 7.60522C49.6227 7.60522 52.2075 10.7941 52.2075 15.1979V29.3708H47.2377Z" fill="#020202"/>
<path d="M75.5328 20.0445H61.9098C61.8723 21.6389 62.4217 23.1575 63.3957 24.1065C64.0949 24.7899 65.0814 25.3846 66.405 25.3846C67.816 25.3846 68.6776 25.1062 69.3769 24.3849C69.8014 23.942 70.1635 23.3852 70.3508 22.626H75.0459C74.9335 23.8661 74.1094 25.4985 73.3227 26.4476C71.5995 28.5229 69.0522 29.3581 66.4674 29.3581C63.6829 29.3581 61.6475 28.3584 60.0492 26.8019C58.0139 24.8025 56.915 21.9047 56.915 18.5133C56.915 15.1219 57.889 12.2494 59.8494 10.2246C61.3728 8.63019 63.5705 7.59253 66.3426 7.59253C69.3644 7.59253 72.099 8.83266 73.7847 11.4142C75.2706 13.692 75.6203 16.033 75.5453 18.6272C75.5453 18.6272 75.5079 19.5889 75.5079 20.0192L75.5328 20.0445ZM69.4268 12.7935C68.765 12.0722 67.7411 11.5913 66.3301 11.5913C64.8441 11.5913 63.6329 12.224 62.9212 13.1858C62.2219 14.0969 61.8973 15.0586 61.8598 16.4127H70.6755C70.638 14.8562 70.201 13.6666 69.4268 12.7808V12.7935Z" fill="#020202"/>
<path d="M79.8784 29.3077V23.0691H85.8346V29.3077H79.8784Z" fill="#020202"/>
<path d="M106.163 26.0933C104.752 27.8903 102.28 29.3708 99.1953 29.3708C96.1111 29.3708 93.5138 27.8523 92.1028 26.0933C90.5794 24.1319 89.8677 21.5377 89.8677 18.488C89.8677 15.4383 90.5669 12.8442 92.1028 10.8827C93.5138 9.12375 96.0986 7.60522 99.1953 7.60522C102.292 7.60522 104.752 9.08579 106.163 10.8827C107.099 12.1229 107.649 13.7679 107.724 15.4003H102.904C102.866 14.6411 102.629 13.9957 102.317 13.4769C101.73 12.5531 100.669 11.9204 99.1828 11.9204C97.8467 11.9204 96.8728 12.4772 96.211 13.1985C95.0372 14.5145 94.8374 16.5139 94.8374 18.4754C94.8374 20.4368 95.0372 22.3982 96.211 23.7143C96.8728 24.4356 97.8592 25.0304 99.1828 25.0304C100.669 25.0304 101.73 24.385 102.317 23.4739C102.629 22.955 102.866 22.3097 102.904 21.5504H107.724C107.649 23.1828 107.099 24.8279 106.163 26.068V26.0933Z" fill="#020202"/>
<path d="M125.018 29.3076V16.2736C125.018 13.8439 124.219 12.3381 121.597 12.3381C118.612 12.3381 117.351 15.5902 117.351 18.1844V29.3076H112.381V0H117.351V10.4272C118.537 8.64296 120.847 7.66857 122.995 7.66857C127.403 7.66857 129.988 10.8701 129.988 15.2233V29.3076H125.018Z" fill="#020202"/>
<path d="M2.52247 39.5071L3.54639 41.7216H3.14681L2.16035 39.5957H0.399715V41.7216H0.0375977V36.7231H1.87316C2.97199 36.7231 3.57136 37.2926 3.57136 38.1531C3.57136 38.8111 3.1593 39.3173 2.52247 39.4945V39.5071ZM1.87316 37.0775H0.399715V39.254H1.87316C2.70977 39.254 3.18427 38.8744 3.18427 38.1657C3.18427 37.4571 2.69728 37.0775 1.87316 37.0775Z" fill="#221F20"/>
<path d="M4.68262 41.7217V36.7359H7.82929V37.0902H5.04473V38.9251H7.49215V39.2794H5.04473V41.38H7.82929V41.7344H4.68262V41.7217ZM5.69405 36.3183L5.58167 36.1284L6.6805 35.3059L6.88029 35.6223L5.70653 36.3183H5.69405Z" fill="#221F20"/>
<path d="M10.714 39.6716H9.34042V41.7216H8.96582V36.7231H10.714C11.6879 36.7231 12.3872 37.1914 12.3872 38.1911C12.3872 39.1908 11.6755 39.659 10.714 39.659V39.6716ZM10.714 37.0775H9.34042V39.3173H10.714C11.4507 39.3173 12.0126 38.9756 12.0126 38.2037C12.0126 37.4318 11.4632 37.0901 10.714 37.0901V37.0775Z" fill="#221F20"/>
<path d="M14.9594 41.7471C13.7482 41.7471 13.1738 40.9372 13.1738 39.8616V36.7612H13.5484V39.8742C13.5484 40.7221 13.973 41.4054 14.9594 41.4054C15.9459 41.4054 16.3829 40.7221 16.3829 39.8742V36.7612H16.7575V39.8616C16.7575 40.9372 16.1707 41.7471 14.9594 41.7471Z" fill="#221F20"/>
<path d="M21.1901 41.3927C20.828 41.6837 20.366 41.7343 19.9165 41.7343H18.1309V36.7358H19.9165C20.2911 36.7358 20.6907 36.7865 21.0153 37.0016C21.34 37.2167 21.5398 37.5837 21.5398 37.9633C21.5398 38.5075 21.315 38.9757 20.7406 39.1275C21.3649 39.2794 21.6521 39.7729 21.6521 40.3423C21.6521 40.7346 21.5148 41.1269 21.1901 41.38V41.3927ZM19.9165 37.0902H18.5055V38.9504H19.9165C20.6157 38.9504 21.1527 38.7859 21.1527 37.9886C21.1527 37.2926 20.5283 37.0775 19.9165 37.0775V37.0902ZM19.9165 39.3047H18.5055V41.3927H19.9165C20.6032 41.3927 21.265 41.1902 21.265 40.3297C21.265 39.5198 20.6407 39.3047 19.9165 39.3047Z" fill="#221F20"/>
<path d="M22.7637 41.747V36.7485H23.1383V41.3927H25.7605V41.7344H22.7762L22.7637 41.747Z" fill="#221F20"/>
<path d="M26.5845 41.7216V36.7231H26.9591V41.7216H26.5845Z" fill="#221F20"/>
<path d="M31.3045 41.2154L31.779 41.8102L31.5167 42.0126L31.0422 41.4305C30.755 41.6204 30.4054 41.7469 29.9809 41.7469C29.4314 41.7469 28.9944 41.5444 28.6822 41.2534C28.1078 40.7219 28.0454 39.9247 28.0454 39.2287C28.0454 38.5327 28.1078 37.7355 28.6822 37.204C28.9944 36.9129 29.4314 36.7104 29.9809 36.7104C30.5303 36.7104 30.9673 36.9129 31.2795 37.204C31.8539 37.7355 31.9163 38.52 31.9163 39.2287C31.9163 39.9373 31.8539 40.7092 31.317 41.2281L31.3045 41.2154ZM31.0048 37.4191C30.7426 37.166 30.368 37.0395 29.9809 37.0395C29.5938 37.0395 29.2192 37.166 28.9569 37.4191C28.4575 37.8747 28.4325 38.6339 28.4325 39.2034C28.4325 39.7728 28.4575 40.5447 28.9569 41.0003C29.2192 41.2534 29.5938 41.3799 29.9809 41.3799C30.293 41.3799 30.5802 41.2913 30.83 41.1395L30.0808 40.2157L30.343 40.0133L31.0922 40.9244C31.5167 40.4688 31.5417 39.7475 31.5417 39.2034C31.5417 38.6213 31.5167 37.8747 31.0173 37.4191H31.0048Z" fill="#221F20"/>
<path d="M34.726 41.709C33.5148 41.709 32.9404 40.8991 32.9404 39.8235V36.7231H33.315V39.8361C33.315 40.684 33.7396 41.3673 34.726 41.3673C35.7125 41.3673 36.1495 40.684 36.1495 39.8361V36.7231H36.5241V39.8235C36.5241 40.8991 35.9373 41.709 34.726 41.709Z" fill="#221F20"/>
<path d="M37.8975 41.7216V36.7231H41.1315V37.0775H38.2846V38.9124H40.7944V39.2667H38.2846V41.3673H41.1315V41.7216H37.8975Z" fill="#221F20"/>
<path d="M43.6665 41.7216V36.7231H46.9006V37.0775H44.0536V38.9124H46.5634V39.2667H44.0536V41.3673H46.9006V41.7216H43.6665Z" fill="#221F20"/>
<path d="M49.2854 37.0902V41.7343H48.9108V37.0902H47.3125V36.7358H50.8962V37.0902H49.2854Z" fill="#221F20"/>
<path d="M54.5426 41.7598C54.0556 41.7598 53.5561 41.5699 53.2065 41.2409C52.6696 40.7221 52.6196 39.9502 52.6196 39.2668C52.6196 38.5835 52.6696 37.8242 53.2065 37.2928C53.5561 36.9637 54.0556 36.7739 54.5426 36.7739C55.5415 36.7739 56.2533 37.4446 56.3407 38.3431H55.9536C55.8912 37.6218 55.3418 37.1283 54.5426 37.1283C54.0931 37.1283 53.7559 37.2801 53.4812 37.5458C53.0192 37.9888 53.0067 38.6974 53.0067 39.2795C53.0067 39.8616 53.0317 40.5703 53.4937 41.0132C53.7684 41.2916 54.1305 41.4308 54.5426 41.4308C55.3418 41.4308 55.8912 40.9246 55.9536 40.2159H56.3407C56.2658 41.1017 55.554 41.7724 54.5426 41.7724V41.7598Z" fill="#221F20"/>
<path d="M60.3486 41.7597L59.8366 40.4437H57.4017L56.9022 41.7597H56.5151L58.4256 36.7612H58.7877L60.7232 41.7597H60.3486ZM58.6004 37.2674L57.5266 40.0893H59.6993L58.6004 37.2674Z" fill="#221F20"/>
<path d="M64.7565 41.747L61.8346 37.318V41.747H61.46V36.7485H61.8845L64.8189 41.1649V36.7485H65.181V41.747H64.7565Z" fill="#221F20"/>
<path d="M67.9534 37.1029V41.747H67.5788V37.1029H65.9805V36.7485H69.5642V37.1029H67.9534Z" fill="#221F20"/>
<path d="M73.048 41.2535C72.7359 41.5446 72.2988 41.747 71.7494 41.747C71.2 41.747 70.763 41.5446 70.4508 41.2535C69.8764 40.7347 69.814 39.9374 69.814 39.2415C69.814 38.5455 69.8764 37.7609 70.4508 37.2421C70.763 36.951 71.2 36.7485 71.7494 36.7485C72.2988 36.7485 72.7359 36.951 73.048 37.2421C73.6224 37.7609 73.6849 38.5581 73.6849 39.2415C73.6849 39.9248 73.6224 40.7347 73.048 41.2535ZM72.7733 37.4698C72.5111 37.2294 72.1365 37.0902 71.7494 37.0902C71.3623 37.0902 70.9877 37.2167 70.7255 37.4698C70.226 37.9254 70.2011 38.672 70.2011 39.2415C70.2011 39.8109 70.226 40.5702 70.7255 41.0257C70.9877 41.2662 71.3623 41.4054 71.7494 41.4054C72.1365 41.4054 72.5111 41.2788 72.7733 41.0257C73.2728 40.5702 73.2978 39.8109 73.2978 39.2415C73.2978 38.672 73.2728 37.9254 72.7733 37.4698Z" fill="#221F20"/>
<path d="M78.0924 41.747L75.1705 37.318V41.747H74.7959V36.7485H75.2204L78.1548 41.1649V36.7485H78.517V41.747H78.0924Z" fill="#221F20"/>
<path d="M84.4357 41.2281C84.136 41.5192 83.6989 41.7216 83.162 41.7216H81.4888V36.7231H83.162C83.6989 36.7231 84.136 36.9256 84.4357 37.2167C84.9851 37.7482 85.0475 38.5201 85.0475 39.2161C85.0475 39.9121 84.9851 40.6966 84.4357 41.2281ZM84.1609 37.4191C83.8987 37.166 83.5366 37.0395 83.162 37.0395H81.8634V41.4179H83.162C83.5366 41.4179 83.9112 41.2787 84.1609 41.0383C84.6354 40.5827 84.6604 39.8361 84.6604 39.2287C84.6604 38.6213 84.623 37.8873 84.1609 37.4318V37.4191Z" fill="#221F20"/>
<path d="M86.1216 41.6965V36.698H89.3557V37.0523H86.4962V38.8872H89.006V39.2415H86.4962V41.3422H89.3557V41.6965H86.1216Z" fill="#221F20"/>
<path d="M94.575 41.6965L92.1526 37.685V41.6965H91.5532V36.698H92.2525L94.6749 40.7221V36.698H95.2743V41.6965H94.575Z" fill="#EF4138"/>
<path d="M96.6602 41.6965V36.698H99.9567V37.2801H97.2845V38.7986H99.632V39.3934H97.2845V41.1144H99.9567V41.6965H96.6602Z" fill="#EF4138"/>
<path d="M102.666 41.6963C101.567 41.6963 100.868 41.0256 100.868 39.8108V36.7104H101.493V39.8361C101.493 40.6207 101.817 41.1395 102.679 41.1395C103.54 41.1395 103.853 40.6207 103.853 39.8361V36.7104H104.477V39.8108C104.477 41.0383 103.778 41.6963 102.679 41.6963H102.666Z" fill="#EF4138"/>
<path d="M108.66 41.1901C108.36 41.4812 107.873 41.7089 107.336 41.7089C106.837 41.7089 106.362 41.5318 106 41.1901C105.463 40.6839 105.376 39.9753 105.376 39.2034C105.376 38.4314 105.463 37.7355 106 37.2293C106.35 36.8876 106.837 36.7104 107.336 36.7104C107.873 36.7104 108.348 36.9129 108.648 37.204C108.935 37.495 109.11 37.8493 109.135 38.3049H108.498C108.498 38.0392 108.385 37.8114 108.223 37.6342C108.023 37.4191 107.711 37.2799 107.336 37.2799C106.999 37.2799 106.675 37.4064 106.437 37.6469C106.038 38.0518 106.025 38.7098 106.025 39.2034C106.025 39.6969 106.038 40.3549 106.437 40.7599C106.675 41.0003 106.999 41.1268 107.336 41.1268C107.711 41.1268 108.036 40.975 108.235 40.7599C108.398 40.5827 108.498 40.3296 108.51 40.0639H109.147C109.122 40.5068 108.947 40.8991 108.66 41.1775V41.1901Z" fill="#EF4138"/>
<path d="M113.093 41.6965V39.3934H110.733V41.6965H110.121V36.698H110.733V38.786H113.093V36.698H113.705V41.6965H113.093Z" fill="#EF4138"/>
<path d="M118.025 41.6964L117.625 40.5195H115.49L115.091 41.6964H114.466L116.202 36.6979H116.926L118.674 41.6964H118.038H118.025ZM117.263 36.3942L116.514 35.5843L115.765 36.3942L115.453 36.0778L116.327 35.1541H116.714L117.588 36.0778L117.276 36.3942H117.263ZM116.539 37.3306L115.665 39.9248H117.413L116.539 37.3306Z" fill="#EF4138"/>
<path d="M120.423 37.2926V41.6963H119.798V37.2926H118.337V36.7104H121.896V37.2926H120.435H120.423Z" fill="#EF4138"/>
<path d="M122.67 41.6965V36.698H125.967V37.2801H123.295V38.7986H125.642V39.3934H123.295V41.1144H125.967V41.6965H122.67Z" fill="#EF4138"/>
<path d="M127.016 41.6965V36.698H127.64V41.1017H130.012V41.6838H127.028L127.016 41.6965Z" fill="#EF4138"/>
<path d="M21.3647 7.70654L17.0068 29.3203H25.5353L29.8932 7.74451L21.3647 7.70654Z" fill="#EF4138"/>
<path d="M22.0016 11.7812L21.627 13.4896H27.3459L27.7205 11.7812H22.0016Z" fill="white"/>
<path d="M23.2627 15.5522H24.9359L26.1097 9.71851H24.4489L23.2627 15.5522Z" fill="white"/>
<path d="M12.9237 7.70654L8.52832 29.2697L17.0069 29.3203L21.3647 7.70654H12.9237Z" fill="white"/>
<path d="M4.35789 7.70654L0 29.3203H8.52848L12.8864 7.74451L4.35789 7.70654Z" fill="#009776"/>
</g>
<defs>
<clipPath id="clip0_2012_1285">
<rect width="130" height="42" fill="white"/>
</clipPath>
</defs>
</svg>
