<svg width="130" height="41" viewBox="0 0 130 41" fill="none" xmlns="http://www.w3.org/2000/svg">
<g clip-path="url(#clip0_2012_1286)">
<path d="M47.2377 28.6717V15.948C47.2377 13.5144 46.4386 12.0444 43.8163 12.0444C42.0682 12.0444 40.9194 13.1562 40.2451 14.6756C39.5334 16.3062 39.5708 18.4557 39.5708 20.2221V28.6717H34.6011V7.94315H38.7717L39.1338 10.6114C40.37 8.42492 42.8299 7.42432 45.2148 7.42432C49.6227 7.42432 52.2075 10.5373 52.2075 14.8362V28.6717H47.2377Z" fill="white"/>
<path d="M75.5328 19.5673H61.9098C61.8723 21.1238 62.4217 22.6062 63.3957 23.5327C64.0949 24.1998 65.0814 24.7803 66.405 24.7803C67.816 24.7803 68.6776 24.5086 69.3769 23.8045C69.8014 23.3721 70.1635 22.8286 70.3508 22.0874H75.0459C74.9335 23.298 74.1094 24.8915 73.3227 25.818C71.5995 27.8439 69.0522 28.6592 66.4674 28.6592C63.6829 28.6592 61.6475 27.6833 60.0492 26.1639C58.0139 24.2121 56.915 21.3832 56.915 18.0726C56.915 14.762 57.889 11.9578 59.8494 9.98131C61.3728 8.42482 63.5705 7.41187 66.3426 7.41187C69.3644 7.41187 72.099 8.62247 73.7847 11.1425C75.2706 13.3661 75.6203 15.6514 75.5453 18.1838C75.5453 18.1838 75.5079 19.1226 75.5079 19.5426L75.5328 19.5673ZM69.4268 12.489C68.765 11.7849 67.7411 11.3155 66.3301 11.3155C64.8441 11.3155 63.6329 11.9331 62.9212 12.8719C62.2219 13.7614 61.8973 14.7002 61.8598 16.022H70.6755C70.638 14.5026 70.201 13.3414 69.4268 12.4766V12.489Z" fill="white"/>
<path d="M79.8784 28.6099V22.5198H85.8346V28.6099H79.8784Z" fill="white"/>
<path d="M106.163 25.4722C104.752 27.2264 102.28 28.6717 99.1953 28.6717C96.1111 28.6717 93.5138 27.1893 92.1028 25.4722C90.5794 23.5575 89.8677 21.0251 89.8677 18.048C89.8677 15.0709 90.5669 12.5385 92.1028 10.6238C93.5138 8.90669 96.0986 7.42432 99.1953 7.42432C102.292 7.42432 104.752 8.86963 106.163 10.6238C107.099 11.8344 107.649 13.4403 107.724 15.0338H102.904C102.866 14.2927 102.629 13.6626 102.317 13.1562C101.73 12.2544 100.669 11.6367 99.1828 11.6367C97.8467 11.6367 96.8728 12.1803 96.211 12.8844C95.0372 14.1691 94.8374 16.1209 94.8374 18.0356C94.8374 19.9504 95.0372 21.8651 96.211 23.1498C96.8728 23.854 97.8592 24.4346 99.1828 24.4346C100.669 24.4346 101.73 23.8046 102.317 22.9151C102.629 22.4086 102.866 21.7786 102.904 21.0375H107.724C107.649 22.631 107.099 24.2369 106.163 25.4475V25.4722Z" fill="white"/>
<path d="M125.018 28.6098V15.8861C125.018 13.5143 124.219 12.0443 121.597 12.0443C118.612 12.0443 117.351 15.219 117.351 17.7514V28.6098H112.381V0H117.351V10.179C118.537 8.43718 120.847 7.48599 122.995 7.48599C127.403 7.48599 129.988 10.6113 129.988 14.8608V28.6098H125.018Z" fill="white"/>
<path d="M2.52247 38.5663L3.54639 40.7281H3.14681L2.16035 38.6528H0.399715V40.7281H0.0375977V35.8486H1.87316C2.97199 35.8486 3.57136 36.4045 3.57136 37.2445C3.57136 37.8869 3.1593 38.381 2.52247 38.554V38.5663ZM1.87316 36.1945H0.399715V38.3193H1.87316C2.70977 38.3193 3.18427 37.9487 3.18427 37.2569C3.18427 36.5651 2.69728 36.1945 1.87316 36.1945Z" fill="white"/>
<path d="M4.68262 40.7281V35.861H7.82929V36.2069H5.04473V37.9981H7.49215V38.344H5.04473V40.3946H7.82929V40.7405H4.68262V40.7281ZM5.69405 35.4533L5.58167 35.268L6.6805 34.4651L6.88029 34.7739L5.70653 35.4533H5.69405Z" fill="white"/>
<path d="M10.714 38.7269H9.34042V40.7281H8.96582V35.8486H10.714C11.6879 35.8486 12.3872 36.3057 12.3872 37.2816C12.3872 38.2575 11.6755 38.7146 10.714 38.7146V38.7269ZM10.714 36.1945H9.34042V38.381H10.714C11.4507 38.381 12.0126 38.0475 12.0126 37.2939C12.0126 36.5404 11.4632 36.2069 10.714 36.2069V36.1945Z" fill="white"/>
<path d="M14.9594 40.7529C13.7482 40.7529 13.1738 39.9623 13.1738 38.9123V35.8857H13.5484V38.9246C13.5484 39.7523 13.973 40.4193 14.9594 40.4193C15.9459 40.4193 16.3829 39.7523 16.3829 38.9246V35.8857H16.7575V38.9123C16.7575 39.9623 16.1707 40.7529 14.9594 40.7529Z" fill="white"/>
<path d="M21.1901 40.407C20.828 40.6912 20.366 40.7406 19.9165 40.7406H18.1309V35.8611H19.9165C20.2911 35.8611 20.6907 35.9105 21.0153 36.1205C21.34 36.3305 21.5398 36.6887 21.5398 37.0593C21.5398 37.5905 21.315 38.0476 20.7406 38.1958C21.3649 38.3441 21.6521 38.8258 21.6521 39.3817C21.6521 39.7647 21.5148 40.1476 21.1901 40.3947V40.407ZM19.9165 36.207H18.5055V38.0229H19.9165C20.6157 38.0229 21.1527 37.8623 21.1527 37.084C21.1527 36.4046 20.5283 36.1946 19.9165 36.1946V36.207ZM19.9165 38.3688H18.5055V40.407H19.9165C20.6032 40.407 21.265 40.2094 21.265 39.3694C21.265 38.5788 20.6407 38.3688 19.9165 38.3688Z" fill="white"/>
<path d="M22.7637 40.7528V35.8733H23.1383V40.4069H25.7605V40.7404H22.7762L22.7637 40.7528Z" fill="white"/>
<path d="M26.5845 40.7281V35.8486H26.9591V40.7281H26.5845Z" fill="white"/>
<path d="M31.3045 40.2339L31.779 40.8145L31.5167 41.0121L31.0422 40.4439C30.755 40.6292 30.4054 40.7527 29.9809 40.7527C29.4314 40.7527 28.9944 40.5551 28.6822 40.2709C28.1078 39.7521 28.0454 38.9739 28.0454 38.2945C28.0454 37.615 28.1078 36.8368 28.6822 36.318C28.9944 36.0338 29.4314 35.8362 29.9809 35.8362C30.5303 35.8362 30.9673 36.0338 31.2795 36.318C31.8539 36.8368 31.9163 37.6027 31.9163 38.2945C31.9163 38.9862 31.8539 39.7398 31.317 40.2462L31.3045 40.2339ZM31.0048 36.528C30.7426 36.2809 30.368 36.1574 29.9809 36.1574C29.5938 36.1574 29.2192 36.2809 28.9569 36.528C28.4575 36.9727 28.4325 37.7139 28.4325 38.2697C28.4325 38.8256 28.4575 39.5792 28.9569 40.0239C29.2192 40.271 29.5938 40.3945 29.9809 40.3945C30.293 40.3945 30.5802 40.308 30.83 40.1598L30.0808 39.258L30.343 39.0603L31.0922 39.9498C31.5167 39.5051 31.5417 38.8009 31.5417 38.2697C31.5417 37.7015 31.5167 36.9727 31.0173 36.528H31.0048Z" fill="white"/>
<path d="M34.726 40.7158C33.5148 40.7158 32.9404 39.9252 32.9404 38.8751V35.8486H33.315V38.8875C33.315 39.7152 33.7396 40.3822 34.726 40.3822C35.7125 40.3822 36.1495 39.7152 36.1495 38.8875V35.8486H36.5241V38.8751C36.5241 39.9252 35.9373 40.7158 34.726 40.7158Z" fill="white"/>
<path d="M37.8975 40.7281V35.8486H41.1315V36.1945H38.2846V37.9857H40.7944V38.3316H38.2846V40.3822H41.1315V40.7281H37.8975Z" fill="white"/>
<path d="M43.6665 40.7281V35.8486H46.9006V36.1945H44.0536V37.9857H46.5634V38.3316H44.0536V40.3822H46.9006V40.7281H43.6665Z" fill="white"/>
<path d="M49.2854 36.207V40.7406H48.9108V36.207H47.3125V35.8611H50.8962V36.207H49.2854Z" fill="white"/>
<path d="M54.5426 40.7651C54.0556 40.7651 53.5561 40.5798 53.2065 40.2586C52.6696 39.7521 52.6196 38.9986 52.6196 38.3315C52.6196 37.6644 52.6696 36.9233 53.2065 36.4044C53.5561 36.0832 54.0556 35.8979 54.5426 35.8979C55.5415 35.8979 56.2533 36.5527 56.3407 37.4297H55.9536C55.8912 36.7256 55.3418 36.2438 54.5426 36.2438C54.0931 36.2438 53.7559 36.3921 53.4812 36.6515C53.0192 37.0838 53.0067 37.7756 53.0067 38.3439C53.0067 38.9121 53.0317 39.6039 53.4937 40.0362C53.7684 40.308 54.1305 40.4439 54.5426 40.4439C55.3418 40.4439 55.8912 39.9498 55.9536 39.258H56.3407C56.2658 40.1227 55.554 40.7774 54.5426 40.7774V40.7651Z" fill="white"/>
<path d="M60.3486 40.7652L59.8366 39.4805H57.4017L56.9022 40.7652H56.5151L58.4256 35.8857H58.7877L60.7232 40.7652H60.3486ZM58.6004 36.3799L57.5266 39.1346H59.6993L58.6004 36.3799Z" fill="white"/>
<path d="M64.7565 40.7528L61.8346 36.4292V40.7528H61.46V35.8733H61.8845L64.8189 40.1845V35.8733H65.181V40.7528H64.7565Z" fill="white"/>
<path d="M67.9534 36.2192V40.7528H67.5788V36.2192H65.9805V35.8733H69.5642V36.2192H67.9534Z" fill="white"/>
<path d="M73.048 40.271C72.7359 40.5551 72.2988 40.7528 71.7494 40.7528C71.2 40.7528 70.763 40.5551 70.4508 40.271C69.8764 39.7645 69.814 38.9863 69.814 38.3069C69.814 37.6274 69.8764 36.8615 70.4508 36.3551C70.763 36.0709 71.2 35.8733 71.7494 35.8733C72.2988 35.8733 72.7359 36.0709 73.048 36.3551C73.6224 36.8615 73.6849 37.6398 73.6849 38.3069C73.6849 38.9739 73.6224 39.7645 73.048 40.271ZM72.7733 36.5774C72.5111 36.3427 72.1365 36.2068 71.7494 36.2068C71.3623 36.2068 70.9877 36.3304 70.7255 36.5774C70.226 37.0221 70.2011 37.751 70.2011 38.3069C70.2011 38.8627 70.226 39.6039 70.7255 40.0486C70.9877 40.2834 71.3623 40.4192 71.7494 40.4192C72.1365 40.4192 72.5111 40.2957 72.7733 40.0486C73.2728 39.6039 73.2978 38.8627 73.2978 38.3069C73.2978 37.751 73.2728 37.0221 72.7733 36.5774Z" fill="white"/>
<path d="M78.0924 40.7528L75.1705 36.4292V40.7528H74.7959V35.8733H75.2204L78.1548 40.1845V35.8733H78.517V40.7528H78.0924Z" fill="white"/>
<path d="M84.4357 40.2463C84.136 40.5305 83.6989 40.7281 83.162 40.7281H81.4888V35.8486H83.162C83.6989 35.8486 84.136 36.0463 84.4357 36.3304C84.9851 36.8492 85.0475 37.6028 85.0475 38.2822C85.0475 38.9616 84.9851 39.7275 84.4357 40.2463ZM84.1609 36.5281C83.8987 36.281 83.5366 36.1575 83.162 36.1575H81.8634V40.4316H83.162C83.5366 40.4316 83.9112 40.2958 84.1609 40.061C84.6354 39.6163 84.6604 38.8875 84.6604 38.2945C84.6604 37.7016 84.623 36.9851 84.1609 36.5404V36.5281Z" fill="white"/>
<path d="M86.1216 40.7035V35.824H89.3557V36.1699H86.4962V37.9611H89.006V38.307H86.4962V40.3576H89.3557V40.7035H86.1216Z" fill="white"/>
<path d="M94.575 40.7035L92.1526 36.7875V40.7035H91.5532V35.824H92.2525L94.6749 39.7523V35.824H95.2743V40.7035H94.575Z" fill="white"/>
<path d="M96.6602 40.7035V35.824H99.9567V36.3922H97.2845V37.8746H99.632V38.4552H97.2845V40.1352H99.9567V40.7035H96.6602Z" fill="white"/>
<path d="M102.666 40.7036C101.567 40.7036 100.868 40.0488 100.868 38.8629V35.8364H101.493V38.8876C101.493 39.6535 101.817 40.16 102.679 40.16C103.54 40.16 103.853 39.6535 103.853 38.8876V35.8364H104.477V38.8629C104.477 40.0612 103.778 40.7036 102.679 40.7036H102.666Z" fill="white"/>
<path d="M108.66 40.2094C108.36 40.4936 107.873 40.7159 107.336 40.7159C106.837 40.7159 106.362 40.543 106 40.2094C105.463 39.7153 105.376 39.0235 105.376 38.27C105.376 37.5164 105.463 36.837 106 36.3429C106.35 36.0094 106.837 35.8364 107.336 35.8364C107.873 35.8364 108.348 36.0341 108.648 36.3182C108.935 36.6023 109.11 36.9482 109.135 37.3929H108.498C108.498 37.1335 108.385 36.9111 108.223 36.7382C108.023 36.5282 107.711 36.3923 107.336 36.3923C106.999 36.3923 106.675 36.5158 106.437 36.7506C106.038 37.1459 106.025 37.7882 106.025 38.27C106.025 38.7518 106.038 39.3941 106.437 39.7894C106.675 40.0241 106.999 40.1477 107.336 40.1477C107.711 40.1477 108.036 39.9994 108.235 39.7894C108.398 39.6165 108.498 39.3694 108.51 39.11H109.147C109.122 39.5424 108.947 39.9253 108.66 40.1971V40.2094Z" fill="white"/>
<path d="M113.093 40.7035V38.4552H110.733V40.7035H110.121V35.824H110.733V37.8622H113.093V35.824H113.705V40.7035H113.093Z" fill="white"/>
<path d="M118.025 40.7035L117.625 39.5546H115.49L115.091 40.7035H114.466L116.202 35.824H116.926L118.674 40.7035H118.038H118.025ZM117.263 35.5275L116.514 34.7369L115.765 35.5275L115.453 35.2187L116.327 34.3169H116.714L117.588 35.2187L117.276 35.5275H117.263ZM116.539 36.4416L115.665 38.974H117.413L116.539 36.4416Z" fill="white"/>
<path d="M120.423 36.4047V40.7036H119.798V36.4047H118.337V35.8364H121.896V36.4047H120.435H120.423Z" fill="white"/>
<path d="M122.67 40.7035V35.824H125.967V36.3922H123.295V37.8746H125.642V38.4552H123.295V40.1352H125.967V40.7035H122.67Z" fill="white"/>
<path d="M127.016 40.7035V35.824H127.64V40.1229H130.012V40.6911H127.028L127.016 40.7035Z" fill="white"/>
<path d="M21.3647 7.52295L17.0068 28.6221H25.5353L29.8932 7.56001L21.3647 7.52295Z" fill="#EF4138"/>
<path d="M22.0016 11.5007L21.627 13.1684H27.3459L27.7205 11.5007H22.0016Z" fill="white"/>
<path d="M23.2627 15.1818H24.9359L26.1097 9.48706H24.4489L23.2627 15.1818Z" fill="white"/>
<path d="M12.9237 7.52295L8.52832 28.5727L17.0069 28.6221L21.3647 7.52295H12.9237Z" fill="white"/>
<path d="M4.35789 7.52295L0 28.6221H8.52848L12.8864 7.56001L4.35789 7.52295Z" fill="#009776"/>
</g>
<defs>
<clipPath id="clip0_2012_1286">
<rect width="130" height="41" fill="white"/>
</clipPath>
</defs>
</svg>
