<svg width="32" height="32" viewBox="0 0 32 32" fill="none" xmlns="http://www.w3.org/2000/svg">
<path d="M22.667 29.3334C21.5559 29.3334 20.6114 28.9445 19.8337 28.1667C19.0559 27.389 18.667 26.4445 18.667 25.3334C18.667 25.2001 18.7003 24.889 18.767 24.4001L9.40033 18.9334C9.04477 19.2667 8.63366 19.5279 8.16699 19.7167C7.70033 19.9056 7.20033 20.0001 6.66699 20.0001C5.55588 20.0001 4.61144 19.6112 3.83366 18.8334C3.05588 18.0556 2.66699 17.1112 2.66699 16.0001C2.66699 14.889 3.05588 13.9445 3.83366 13.1667C4.61144 12.389 5.55588 12.0001 6.66699 12.0001C7.20033 12.0001 7.70033 12.0945 8.16699 12.2834C8.63366 12.4723 9.04477 12.7334 9.40033 13.0667L18.767 7.60008C18.7225 7.44453 18.6948 7.29453 18.6837 7.15008C18.6725 7.00564 18.667 6.84453 18.667 6.66675C18.667 5.55564 19.0559 4.61119 19.8337 3.83341C20.6114 3.05564 21.5559 2.66675 22.667 2.66675C23.7781 2.66675 24.7225 3.05564 25.5003 3.83341C26.2781 4.61119 26.667 5.55564 26.667 6.66675C26.667 7.77786 26.2781 8.7223 25.5003 9.50008C24.7225 10.2779 23.7781 10.6667 22.667 10.6667C22.1337 10.6667 21.6337 10.5723 21.167 10.3834C20.7003 10.1945 20.2892 9.93341 19.9337 9.60008L10.567 15.0667C10.6114 15.2223 10.6392 15.3723 10.6503 15.5167C10.6614 15.6612 10.667 15.8223 10.667 16.0001C10.667 16.1779 10.6614 16.339 10.6503 16.4834C10.6392 16.6279 10.6114 16.7779 10.567 16.9334L19.9337 22.4001C20.2892 22.0667 20.7003 21.8056 21.167 21.6167C21.6337 21.4279 22.1337 21.3334 22.667 21.3334C23.7781 21.3334 24.7225 21.7223 25.5003 22.5001C26.2781 23.2779 26.667 24.2223 26.667 25.3334C26.667 26.4445 26.2781 27.389 25.5003 28.1667C24.7225 28.9445 23.7781 29.3334 22.667 29.3334ZM22.667 26.6667C23.0448 26.6667 23.3614 26.539 23.617 26.2834C23.8725 26.0279 24.0003 25.7112 24.0003 25.3334C24.0003 24.9556 23.8725 24.639 23.617 24.3834C23.3614 24.1279 23.0448 24.0001 22.667 24.0001C22.2892 24.0001 21.9725 24.1279 21.717 24.3834C21.4614 24.639 21.3337 24.9556 21.3337 25.3334C21.3337 25.7112 21.4614 26.0279 21.717 26.2834C21.9725 26.539 22.2892 26.6667 22.667 26.6667ZM6.66699 17.3334C7.04477 17.3334 7.36144 17.2056 7.61699 16.9501C7.87255 16.6945 8.00033 16.3779 8.00033 16.0001C8.00033 15.6223 7.87255 15.3056 7.61699 15.0501C7.36144 14.7945 7.04477 14.6667 6.66699 14.6667C6.28921 14.6667 5.97255 14.7945 5.71699 15.0501C5.46144 15.3056 5.33366 15.6223 5.33366 16.0001C5.33366 16.3779 5.46144 16.6945 5.71699 16.9501C5.97255 17.2056 6.28921 17.3334 6.66699 17.3334ZM23.617 7.61675C23.8725 7.36119 24.0003 7.04453 24.0003 6.66675C24.0003 6.28897 23.8725 5.9723 23.617 5.71675C23.3614 5.46119 23.0448 5.33341 22.667 5.33341C22.2892 5.33341 21.9725 5.46119 21.717 5.71675C21.4614 5.9723 21.3337 6.28897 21.3337 6.66675C21.3337 7.04453 21.4614 7.36119 21.717 7.61675C21.9725 7.8723 22.2892 8.00008 22.667 8.00008C23.0448 8.00008 23.3614 7.8723 23.617 7.61675Z" fill="currentColor"/>
</svg>
