<svg width="32" height="32" viewBox="0 0 32 32" fill="none" xmlns="http://www.w3.org/2000/svg">
<path d="M2.5 17.5C1.67301 17.5 1 18.173 1 19V21C1 21.827 1.67301 22.5 2.5 22.5C3.32699 22.5 4 21.827 4 21V19C4 18.173 3.32699 17.5 2.5 17.5Z" fill="currentColor"/>
<path d="M6.5 15.5C5.67301 15.5 5 16.173 5 17V21C5 21.827 5.67301 22.5 6.5 22.5C7.32699 22.5 8 21.827 8 21V17C8 16.173 7.32699 15.5 6.5 15.5Z" fill="currentColor"/>
<path d="M10.5 13.5C9.67301 13.5 9 14.173 9 15V21C9 21.827 9.67301 22.5 10.5 22.5C11.327 22.5 12 21.827 12 21V15C12 14.173 11.327 13.5 10.5 13.5Z" fill="currentColor"/>
<path d="M14.5 11.5C13.673 11.5 13 12.285 13 13.25V20.75C13 21.715 13.673 22.5 14.5 22.5C15.327 22.5 16 21.7151 16 20.75V13.25C16 12.285 15.327 11.5 14.5 11.5Z" fill="currentColor"/>
<path d="M26.9995 14.5C26.747 14.5 26.4945 14.5245 26.2455 14.573C25.3826 11.3135 22.4166 9 18.9995 9C18.4611 9 17.9201 9.06 17.391 9.17748L16.9995 9.26496V22.5H26.9995C29.2051 22.5 30.9995 20.7055 30.9995 18.5C30.9995 16.2945 29.2051 14.5 26.9995 14.5Z" fill="currentColor"/>
</svg>
