<svg width="32" height="32" viewBox="0 0 32 32" fill="none" xmlns="http://www.w3.org/2000/svg">
<path d="M14.7166 26.9471C11.7334 26.9471 9.98538 20.9975 8.66858 15.1775C8.56858 14.7367 8.49018 14.3887 8.43338 14.1703C7.94138 12.2703 7.52138 12.2703 7.29578 12.2703C7.27018 12.2703 7.24378 12.2703 7.21738 12.2719C6.99818 12.2927 6.28378 12.7527 5.71898 13.2399C5.59178 13.3495 5.42538 13.4015 5.25898 13.3847C5.09258 13.3679 4.93978 13.2823 4.83738 13.1511L3.72778 11.7167C3.53418 11.4687 3.56298 11.1127 3.79338 10.8983C3.80858 10.8831 5.32298 9.46953 8.48858 6.74953C9.51418 5.86953 10.5222 5.42473 11.4878 5.42473C13.5158 5.42473 14.7078 7.37433 14.9054 8.75753C15.0446 9.73513 15.3958 11.9271 15.8318 13.9655C16.5094 17.1271 16.9838 18.0231 17.1614 18.2631C18.0446 17.8735 19.975 15.0255 20.3654 12.8463C20.483 12.1815 20.3846 11.8631 20.2902 11.8127C19.9558 11.6311 19.623 11.5399 19.3014 11.5399C18.6182 11.5399 18.1622 11.9559 18.1574 11.9599C17.967 12.1439 17.6822 12.1839 17.4486 12.0599C17.215 11.9367 17.0886 11.6743 17.1334 11.4127C17.1446 11.3535 17.3982 9.92633 18.3222 8.43513C19.5694 6.42553 21.4374 5.26233 23.7238 5.07673C23.9206 5.06073 24.1158 5.05273 24.3022 5.05273C26.2598 5.05273 27.2414 5.94393 27.719 6.69033C28.911 8.55513 28.5302 11.7279 26.6182 15.8679C23.7486 22.0799 18.5198 26.9471 14.7166 26.9471ZM7.29498 11.0487C8.69418 11.0487 9.23738 12.4007 9.61578 13.8639C9.67738 14.0991 9.75818 14.4575 9.86058 14.9095C10.2326 16.5535 10.855 19.3055 11.7502 21.6863C13.071 25.2007 14.1758 25.7263 14.7166 25.7263C17.603 25.7263 22.5502 21.7607 25.511 15.3551C27.1894 11.7215 27.6198 8.80393 26.691 7.35033C26.235 6.63753 25.4318 6.27593 24.3038 6.27593C24.151 6.27593 23.9894 6.28313 23.8246 6.29513C21.9262 6.45033 20.4318 7.37753 19.383 9.04713C19.091 9.51193 18.8742 9.97434 18.7174 10.3759C18.8974 10.3391 19.0926 10.3183 19.3014 10.3183C19.8286 10.3183 20.3566 10.4591 20.8718 10.7383C21.3342 10.9871 21.8302 11.5927 21.5678 13.0607C21.3654 14.1919 20.7222 15.7103 19.8902 17.0247C19.2214 18.0791 18.211 19.3679 17.1982 19.5127C17.1574 19.5191 17.115 19.5223 17.075 19.5223C16.2966 19.5223 15.6326 18.7055 14.7294 14.6423C14.1246 11.9215 13.7134 9.05113 13.6958 8.92953C13.5638 8.00873 12.771 6.64553 11.487 6.64553C10.8222 6.64553 10.0814 6.99273 9.28378 7.67673C7.07418 9.57433 5.67658 10.8295 5.03658 11.4127L5.42138 11.9103C5.91098 11.5407 6.60698 11.0911 7.12778 11.0527C7.18538 11.0503 7.24138 11.0487 7.29498 11.0487Z" fill="currentColor"/>
</svg>
