<svg width="32" height="32" viewBox="0 0 32 32" fill="none" xmlns="http://www.w3.org/2000/svg">
<path d="M24.1359 23.8422L18.2672 14.6191L24.0581 8.24876C24.1891 8.10113 24.2566 7.90782 24.246 7.71075C24.2354 7.51368 24.1475 7.32873 24.0015 7.196C23.8554 7.06327 23.6629 6.99345 23.4658 7.00169C23.2686 7.00993 23.0826 7.09556 22.9481 7.24001L17.4319 13.3075L13.6359 7.3422C13.5682 7.23565 13.4748 7.14792 13.3641 7.08712C13.2535 7.02632 13.1293 6.99442 13.0031 6.99438H8.50312C8.36864 6.99432 8.23663 7.03041 8.12089 7.09888C8.00515 7.16735 7.90995 7.26567 7.84525 7.38356C7.78056 7.50145 7.74875 7.63457 7.75316 7.76897C7.75756 7.90337 7.79803 8.03411 7.87031 8.14751L13.7391 17.3697L7.94812 23.7447C7.88049 23.8173 7.82796 23.9027 7.79356 23.9958C7.75916 24.0889 7.74358 24.1879 7.74772 24.287C7.75187 24.3862 7.77565 24.4836 7.8177 24.5735C7.85974 24.6634 7.91921 24.744 7.99266 24.8108C8.06611 24.8775 8.15207 24.929 8.24558 24.9623C8.33908 24.9956 8.43826 25.01 8.53736 25.0046C8.63647 24.9993 8.73353 24.9744 8.82292 24.9312C8.91231 24.8881 8.99225 24.8277 9.05812 24.7534L14.5744 18.6859L18.3703 24.6513C18.4385 24.7569 18.5323 24.8437 18.6429 24.9037C18.7534 24.9637 18.8773 24.9948 19.0031 24.9944H23.5031C23.6374 24.9943 23.7693 24.9582 23.8849 24.8898C24.0005 24.8214 24.0956 24.7232 24.1603 24.6054C24.2249 24.4877 24.2568 24.3547 24.2525 24.2205C24.2482 24.0862 24.208 23.9556 24.1359 23.8422ZM19.4147 23.4944L9.86906 8.49438H12.5878L22.1372 23.4944H19.4147Z" fill="currentColor"/>
</svg>
