<svg width="32" height="32" viewBox="0 0 32 32" fill="none" xmlns="http://www.w3.org/2000/svg">
<path d="M29.3847 7.01074C28.5186 6.46931 26.1051 5.75 15.9925 5.75C5.15568 5.75 3.54734 6.57603 3.03087 6.84675C0.284706 8.28015 0.0239753 14.6238 0 15.9097C0.032966 17.6086 0.34864 23.2615 3.02888 24.6593C3.54335 24.9292 5.1427 25.75 15.9915 25.75C26.1111 25.75 28.5216 25.0342 29.3837 24.4945C31.7243 23.0316 31.993 17.9956 32 15.8871C31.994 14.1916 31.7892 8.51529 29.3837 7.01074H29.3847ZM28.2179 23.0871C27.8693 23.3049 25.8703 24.0146 15.9915 24.0146C6.44136 24.0146 4.43742 23.3708 4.05882 23.1721C3.09481 22.6697 2.07686 20.0034 1.99794 15.9044C2.07686 11.8151 3.1078 8.83026 4.06181 8.33308C4.44142 8.13438 6.45235 7.48536 15.9925 7.48536C25.8633 7.48536 27.8673 8.20033 28.2189 8.41898C29.075 8.95434 29.9901 11.7726 30.0041 15.8923C29.9901 20.0771 29.069 22.5543 28.2189 23.0862L28.2179 23.0871ZM22.5068 15.0671L13.5181 10.2758C13.2094 10.1136 12.8238 10.1101 12.5111 10.2637C12.1964 10.4181 12.0026 10.7071 12.0026 11.0194V20.6029C12.0026 20.9153 12.1964 21.2051 12.5111 21.3587C12.6629 21.4333 12.8328 21.4706 13.0016 21.4706C13.1794 21.4706 13.3592 21.429 13.5171 21.3465L22.5058 16.5535C22.8055 16.3964 22.9883 16.1144 22.9883 15.8107C22.9883 15.507 22.8055 15.2242 22.5058 15.0671H22.5068ZM14.0016 19.0663V12.5561L20.0583 15.8107L14.0016 19.0663Z" fill="currentColor"/>
</svg>
