<svg width="150" height="25" viewBox="0 0 150 25" fill="none" xmlns="http://www.w3.org/2000/svg">
<g clip-path="url(#clip0_2126_16263)">
<path d="M0.000488281 23.9591V21.7637C0.585563 21.7637 1.05571 21.594 1.41093 21.2546C1.76617 20.9151 2.0587 20.4697 2.28855 19.9182C2.53929 19.3667 2.77959 18.7727 3.00944 18.1364L9.12138 1.11364H11.3154L17.9916 18.4546C18.1169 18.7727 18.2841 19.2606 18.4931 19.9182C18.7019 20.5546 18.8273 21.1167 18.8692 21.6046C19.2244 21.5622 19.5587 21.5409 19.8722 21.5409C20.2064 21.5197 20.4781 21.5091 20.6871 21.5091V23.9591H12.2557V21.8591C12.8407 21.8591 13.2378 21.7424 13.4468 21.5091C13.6766 21.2546 13.781 20.9151 13.7602 20.4909C13.7393 20.0667 13.6243 19.5895 13.4154 19.0591L12.7886 17.3091L5.98705 17.4364L5.48556 18.9318C5.38109 19.2076 5.22437 19.6213 5.01541 20.1727C4.82735 20.7031 4.64975 21.1485 4.48258 21.5091C4.81691 21.4667 5.21393 21.4455 5.67362 21.4455C6.15422 21.4242 6.499 21.4137 6.70795 21.4137V23.9591H0.000488281ZM6.77064 15.05H12.005L10.5632 11.0727C10.2915 10.3091 10.0512 9.54545 9.84228 8.78181C9.63333 7.99697 9.47661 7.30758 9.37213 6.71363H9.34079C9.25721 7.07425 9.13184 7.61515 8.96466 8.33636C8.7975 9.05758 8.53631 9.91667 8.18108 10.9136L6.77064 15.05ZM20.6898 21.8909C21.2748 21.8909 21.6928 21.7742 21.9435 21.5409C22.1943 21.3076 22.351 20.9788 22.4137 20.5546C22.4972 20.1091 22.539 19.6106 22.539 19.0591V13.7137C22.539 13.3318 22.5494 12.9076 22.5704 12.4409C22.5912 11.9531 22.6225 11.4758 22.6644 11.0091C22.33 11.0303 21.933 11.0515 21.4734 11.0727C21.0345 11.0727 20.7002 11.0833 20.4704 11.1045V8.68636H21.7241C22.539 8.68636 23.2807 8.5803 23.9495 8.36818C24.639 8.15606 25.0882 7.94394 25.2972 7.73181H26.8331C26.8748 7.94394 26.9062 8.34697 26.9271 8.9409C26.9479 9.51363 26.9584 10.0227 26.9584 10.4682C27.5226 9.76818 28.0554 9.20606 28.5569 8.78181C29.0584 8.35758 29.5494 8.05 30.0301 7.85909C30.5316 7.64697 31.0331 7.5409 31.5346 7.5409C32.2659 7.5409 32.9031 7.75303 33.4465 8.17727C33.9897 8.5803 34.2614 9.24848 34.2614 10.1818C34.2614 10.5 34.1882 10.8394 34.042 11.2C33.8957 11.5394 33.6659 11.8258 33.3525 12.0591C33.039 12.2924 32.6106 12.4091 32.0674 12.4091C31.6494 12.4091 31.2211 12.2818 30.7823 12.0273C30.3435 11.7727 30.0928 11.2848 30.0301 10.5636C29.6121 10.5636 29.1942 10.7439 28.7763 11.1045C28.3584 11.444 27.9822 11.8576 27.648 12.3455C27.3346 12.8122 27.1151 13.247 26.9898 13.65V18.8364C26.9898 19.1333 26.9793 19.5576 26.9584 20.1091C26.9375 20.6395 26.9062 21.1485 26.8644 21.6364C27.1987 21.594 27.5644 21.5727 27.9614 21.5727C28.3793 21.5515 28.6927 21.5409 28.9017 21.5409V23.9591H20.6898V21.8909ZM40.7015 24.4682C40.0746 24.4682 39.4687 24.394 38.8835 24.2455C38.2984 24.097 37.7761 23.8213 37.3164 23.4182C36.8566 22.994 36.491 22.3788 36.2194 21.5727C35.9477 20.7667 35.8119 19.6955 35.8119 18.3591L35.8746 10.6909H33.7432V8.05C34.391 8.02879 35.0179 7.80606 35.6238 7.38181C36.2298 6.95757 36.7418 6.40606 37.1597 5.72727C37.5985 5.04848 37.891 4.33788 38.0373 3.59545H40.3567L40.3253 8.05H44.3059V10.5L40.3253 10.5955L40.294 18.4227C40.294 18.9106 40.3357 19.3985 40.4194 19.8864C40.5238 20.3531 40.7119 20.7455 40.9835 21.0637C41.2552 21.3606 41.6522 21.5091 42.1746 21.5091C42.4671 21.5091 42.8641 21.4031 43.3656 21.1909C43.8881 20.9788 44.4417 20.4485 45.0268 19.6L46.5313 21.0318C45.9671 21.8804 45.382 22.5379 44.7761 23.0046C44.1701 23.4713 43.585 23.8106 43.0209 24.0227C42.4776 24.2349 41.9969 24.3622 41.5791 24.4046C41.1612 24.447 40.8686 24.4682 40.7015 24.4682ZM46.1892 21.8909C46.7743 21.8909 47.1922 21.7742 47.4429 21.5409C47.6937 21.3076 47.8504 20.9788 47.9131 20.5546C47.9967 20.1091 48.0385 19.6106 48.0385 19.0591V13.7773C48.0385 13.3955 48.0489 12.9606 48.0698 12.4727C48.0907 11.9637 48.1221 11.4758 48.1638 11.0091C47.8295 11.0303 47.4325 11.0515 46.9728 11.0727C46.534 11.0727 46.1996 11.0833 45.9698 11.1045V8.68636C46.931 8.68636 47.746 8.63334 48.4146 8.52727C49.0832 8.42121 49.6056 8.29394 49.9818 8.14545C50.3788 7.99697 50.6504 7.85909 50.7967 7.73181H52.4892V18.8364C52.4892 19.1333 52.4788 19.5576 52.4579 20.1091C52.4369 20.6395 52.4056 21.1485 52.3638 21.6364C52.6982 21.594 53.0638 21.5727 53.4609 21.5727C53.8787 21.5515 54.1922 21.5409 54.4012 21.5409V23.9591H46.1892V21.8909ZM50.1071 5.21818C49.3966 5.21818 48.8116 4.96363 48.3519 4.45454C47.8922 3.94545 47.6623 3.3303 47.6623 2.60909C47.6623 1.88788 47.9027 1.27272 48.3832 0.763635C48.8638 0.254546 49.428 0 50.0758 0C50.7444 0 51.2982 0.254546 51.737 0.763635C52.1967 1.27272 52.4265 1.88788 52.4265 2.60909C52.4265 3.3303 52.2175 3.94545 51.7997 4.45454C51.3818 4.96363 50.8176 5.21818 50.1071 5.21818ZM62.3984 24.4682C61.4999 24.4682 60.6222 24.3515 59.7656 24.1182C58.9088 23.8849 58.2402 23.5879 57.7596 23.2273L57.8223 24.1818H55.4402L55.3148 18.7091H57.3521C57.4148 19.3455 57.6656 19.9288 58.1044 20.4591C58.5432 20.9895 59.1178 21.4137 59.8282 21.7318C60.5386 22.0288 61.3327 22.1773 62.2103 22.1773C62.5655 22.1773 62.8999 22.1242 63.2133 22.0182C63.5476 21.9122 63.8193 21.7424 64.0282 21.5091C64.2581 21.2546 64.373 20.947 64.373 20.5864C64.373 20.1833 64.2267 19.8546 63.9342 19.6C63.6625 19.3455 63.2551 19.1015 62.7118 18.8682C62.1894 18.6349 61.5312 18.3697 60.7372 18.0727C60.0894 17.8182 59.4312 17.5531 58.7626 17.2773C58.1148 17.0015 57.5088 16.6727 56.9447 16.2909C56.4013 15.8879 55.9625 15.4 55.6282 14.8273C55.2939 14.2333 55.1268 13.5122 55.1268 12.6637C55.1268 12.0485 55.2416 11.444 55.4715 10.85C55.7013 10.2348 56.0565 9.68334 56.5372 9.19545C57.0178 8.68636 57.6237 8.28334 58.3551 7.98636C59.1073 7.68939 59.9954 7.5409 61.0193 7.5409C61.5835 7.5409 62.2207 7.63636 62.9312 7.82727C63.6625 7.99697 64.279 8.26212 64.7805 8.62272V7.7H67.1626V13.3318H65.1253C64.9999 12.5895 64.7386 11.9531 64.3417 11.4227C63.9656 10.8924 63.4745 10.4894 62.8685 10.2136C62.2625 9.91667 61.5835 9.76818 60.8312 9.76818C60.3088 9.76818 59.8282 9.89545 59.3894 10.15C58.9715 10.4045 58.7626 10.8394 58.7626 11.4546C58.7626 11.9424 58.9297 12.3349 59.2641 12.6318C59.5983 12.9076 60.0581 13.1409 60.6432 13.3318C61.2282 13.5227 61.876 13.7455 62.5865 14C63.6521 14.3606 64.5924 14.7849 65.4073 15.2727C66.2431 15.7606 66.9013 16.3546 67.382 17.0546C67.8625 17.7333 68.1029 18.5713 68.1029 19.5682C68.1029 20.6713 67.8312 21.5833 67.2879 22.3046C66.7446 23.0258 66.0342 23.5667 65.1566 23.9273C64.2998 24.2879 63.3804 24.4682 62.3984 24.4682ZM75.3541 24.4682C74.7273 24.4682 74.1213 24.394 73.5362 24.2455C72.9511 24.097 72.4288 23.8213 71.9691 23.4182C71.5093 22.994 71.1437 22.3788 70.872 21.5727C70.6004 20.7667 70.4646 19.6955 70.4646 18.3591L70.5273 10.6909H68.3959V8.05C69.0437 8.02879 69.6706 7.80606 70.2765 7.38181C70.8825 6.95757 71.3945 6.40606 71.8124 5.72727C72.2512 5.04848 72.5437 4.33788 72.69 3.59545H75.0094L74.978 8.05H78.9586V10.5L74.978 10.5955L74.9467 18.4227C74.9467 18.9106 74.9884 19.3985 75.0721 19.8864C75.1765 20.3531 75.3646 20.7455 75.6362 21.0637C75.9079 21.3606 76.3048 21.5091 76.8273 21.5091C77.1198 21.5091 77.5168 21.4031 78.0183 21.1909C78.5407 20.9788 79.0944 20.4485 79.6795 19.6L81.184 21.0318C80.6198 21.8804 80.0347 22.5379 79.4288 23.0046C78.8228 23.4713 78.2377 23.8106 77.6735 24.0227C77.1303 24.2349 76.6496 24.3622 76.2318 24.4046C75.8139 24.447 75.5213 24.4682 75.3541 24.4682ZM88.2703 24.4682C86.7449 24.4682 85.3971 24.1288 84.227 23.45C83.0569 22.75 82.1479 21.7742 81.5001 20.5227C80.8523 19.25 80.5285 17.7546 80.5285 16.0364C80.5285 14.5515 80.8523 13.1622 81.5001 11.8682C82.1479 10.5742 83.0569 9.53485 84.227 8.75C85.418 7.94394 86.7971 7.5409 88.3643 7.5409C89.2419 7.5409 90.0986 7.66818 90.9344 7.92272C91.7703 8.15606 92.5225 8.5697 93.1912 9.16363C93.8807 9.75758 94.424 10.5636 94.821 11.5818C95.2389 12.6 95.4375 13.8727 95.4165 15.4L85.1359 15.5909C85.1359 16.7364 85.2717 17.7651 85.5434 18.6773C85.8359 19.5895 86.306 20.3106 86.9538 20.8409C87.6016 21.3713 88.4687 21.6364 89.5553 21.6364C89.9732 21.6364 90.4434 21.5622 90.9658 21.4137C91.509 21.2651 92.0524 21.0213 92.5956 20.6818C93.1598 20.3213 93.6822 19.844 94.1628 19.25L95.5732 20.5864C94.821 21.6682 94.0165 22.4955 93.1598 23.0682C92.3031 23.6197 91.4463 23.9909 90.5897 24.1818C89.7538 24.3727 88.9808 24.4682 88.2703 24.4682ZM85.324 13.3637H91.0912C91.0702 12.4727 90.9449 11.7727 90.715 11.2636C90.506 10.7333 90.2135 10.3515 89.8374 10.1182C89.4613 9.88485 89.0225 9.76818 88.521 9.76818C87.6016 9.76818 86.8808 10.1076 86.3583 10.7864C85.8359 11.444 85.4911 12.3031 85.324 13.3637ZM103.662 24.4682C102.764 24.4682 101.886 24.3515 101.03 24.1182C100.173 23.8849 99.5044 23.5879 99.0237 23.2273L99.0864 24.1818H96.7043L96.5789 18.7091H98.6162C98.6789 19.3455 98.9297 19.9288 99.3685 20.4591C99.8073 20.9895 100.382 21.4137 101.092 21.7318C101.803 22.0288 102.597 22.1773 103.474 22.1773C103.83 22.1773 104.164 22.1242 104.477 22.0182C104.812 21.9122 105.083 21.7424 105.292 21.5091C105.522 21.2546 105.637 20.947 105.637 20.5864C105.637 20.1833 105.491 19.8546 105.198 19.6C104.927 19.3455 104.519 19.1015 103.976 18.8682C103.454 18.6349 102.795 18.3697 102.001 18.0727C101.354 17.8182 100.695 17.5531 100.027 17.2773C99.379 17.0015 98.7729 16.6727 98.2088 16.2909C97.6655 15.8879 97.2267 15.4 96.8924 14.8273C96.5581 14.2333 96.3909 13.5122 96.3909 12.6637C96.3909 12.0485 96.5058 11.444 96.7356 10.85C96.9656 10.2348 97.3207 9.68334 97.8013 9.19545C98.282 8.68636 98.8879 8.28334 99.6192 7.98636C100.371 7.68939 101.26 7.5409 102.283 7.5409C102.848 7.5409 103.485 7.63636 104.195 7.82727C104.927 7.99697 105.543 8.26212 106.045 8.62272V7.7H108.427V13.3318H106.389C106.264 12.5895 106.003 11.9531 105.606 11.4227C105.23 10.8924 104.739 10.4894 104.133 10.2136C103.527 9.91667 102.848 9.76818 102.095 9.76818C101.573 9.76818 101.092 9.89545 100.654 10.15C100.236 10.4045 100.027 10.8394 100.027 11.4546C100.027 11.9424 100.194 12.3349 100.528 12.6318C100.863 12.9076 101.322 13.1409 101.907 13.3318C102.492 13.5227 103.14 13.7455 103.851 14C104.916 14.3606 105.857 14.7849 106.671 15.2727C107.507 15.7606 108.166 16.3546 108.646 17.0546C109.127 17.7333 109.367 18.5713 109.367 19.5682C109.367 20.6713 109.095 21.5833 108.552 22.3046C108.009 23.0258 107.298 23.5667 106.421 23.9273C105.564 24.2879 104.645 24.4682 103.662 24.4682ZM112.794 24.4682C112.126 24.4682 111.572 24.2242 111.133 23.7364C110.715 23.2485 110.506 22.6651 110.506 21.9864C110.506 21.3076 110.736 20.7242 111.196 20.2364C111.656 19.7485 112.189 19.5046 112.794 19.5046C113.442 19.5046 113.975 19.7485 114.393 20.2364C114.831 20.7242 115.051 21.3076 115.051 21.9864C115.051 22.6651 114.843 23.2485 114.424 23.7364C114.028 24.2242 113.484 24.4682 112.794 24.4682ZM116.474 23.9591V21.8909C117.059 21.8909 117.477 21.7742 117.727 21.5409C117.978 21.3076 118.135 20.9788 118.197 20.5546C118.281 20.1091 118.323 19.6106 118.323 19.0591V13.7137C118.323 13.3318 118.334 12.9076 118.354 12.4409C118.375 11.9531 118.407 11.4758 118.448 11.0091C118.115 11.0303 117.717 11.0515 117.257 11.0727C116.818 11.0727 116.485 11.0833 116.254 11.1045V8.68636C117.216 8.68636 118.031 8.63334 118.699 8.52727C119.368 8.42121 119.89 8.29394 120.266 8.14545C120.664 7.99697 120.936 7.85909 121.081 7.73181H122.617C122.659 8.00758 122.68 8.20909 122.68 8.33636C122.68 8.46363 122.68 8.5909 122.68 8.71818C122.701 8.82425 122.742 9.02576 122.805 9.32272C123.224 8.98334 123.704 8.68636 124.247 8.43181C124.791 8.15606 125.334 7.94394 125.877 7.79545C126.421 7.62576 126.901 7.5409 127.318 7.5409C129.242 7.5409 130.599 8.10303 131.393 9.22727C132.208 10.3303 132.615 12.1122 132.615 14.5727V18.8364C132.615 19.1333 132.605 19.5576 132.584 20.1091C132.564 20.6395 132.533 21.1485 132.49 21.6364C132.846 21.594 133.222 21.5727 133.618 21.5727C134.016 21.5515 134.319 21.5409 134.527 21.5409V23.9591H126.315V21.8909C126.901 21.8909 127.318 21.7742 127.569 21.5409C127.841 21.3076 128.008 20.9788 128.071 20.5546C128.155 20.1091 128.196 19.6106 128.196 19.0591L128.165 14.5409C128.165 13.1622 127.967 12.144 127.569 11.4864C127.193 10.8076 126.546 10.4682 125.626 10.4682C125.104 10.4682 124.581 10.5848 124.059 10.8182C123.557 11.0515 123.13 11.3273 122.774 11.6455C122.774 11.9424 122.774 12.25 122.774 12.5682C122.774 12.8651 122.774 13.1622 122.774 13.4591V18.8364C122.774 19.1333 122.764 19.5576 122.742 20.1091C122.722 20.6395 122.691 21.1485 122.648 21.6364C122.983 21.594 123.349 21.5727 123.745 21.5727C124.164 21.5515 124.477 21.5409 124.686 21.5409V23.9591H116.474ZM142.636 24.4682C141.111 24.4682 139.763 24.1288 138.593 23.45C137.423 22.75 136.514 21.7742 135.866 20.5227C135.218 19.25 134.895 17.7546 134.895 16.0364C134.895 14.5515 135.218 13.1622 135.866 11.8682C136.514 10.5742 137.423 9.53485 138.593 8.75C139.784 7.94394 141.163 7.5409 142.73 7.5409C143.608 7.5409 144.464 7.66818 145.3 7.92272C146.137 8.15606 146.889 8.5697 147.557 9.16363C148.247 9.75758 148.79 10.5636 149.187 11.5818C149.605 12.6 149.804 13.8727 149.783 15.4L139.502 15.5909C139.502 16.7364 139.637 17.7651 139.909 18.6773C140.202 19.5895 140.672 20.3106 141.32 20.8409C141.968 21.3713 142.834 21.6364 143.921 21.6364C144.339 21.6364 144.809 21.5622 145.332 21.4137C145.875 21.2651 146.419 21.0213 146.962 20.6818C147.526 20.3213 148.049 19.844 148.529 19.25L149.939 20.5864C149.187 21.6682 148.382 22.4955 147.526 23.0682C146.67 23.6197 145.812 23.9909 144.956 24.1818C144.12 24.3727 143.347 24.4682 142.636 24.4682ZM139.69 13.3637H145.457C145.436 12.4727 145.311 11.7727 145.081 11.2636C144.872 10.7333 144.58 10.3515 144.203 10.1182C143.827 9.88485 143.389 9.76818 142.887 9.76818C141.968 9.76818 141.247 10.1076 140.724 10.7864C140.202 11.444 139.857 12.3031 139.69 13.3637Z" fill="white"/>
</g>
<defs>
<clipPath id="clip0_2126_16263">
<rect width="150" height="25" fill="white"/>
</clipPath>
</defs>
</svg>
